<?xml version="1.0" ?><svg enable-background="new 0 0 24 24" id="Layer_1" version="1.1" viewBox="0 0 24 24" xml:space="preserve" xmlns="http://www.w3.org/2000/svg" xmlns:xlink="http://www.w3.org/1999/xlink"><g><path d="M6.5,16.5   c0,0,1.833333,1,5.5,1s5.5-1,5.5-1V5.9999943C17.5,2.9624314,15.037569,0.5,12.0000057,0.5h-0.0000114   C8.962431,0.5,6.5,2.9624314,6.5,5.9999943V16.5z" fill="none" stroke="#ffc107" stroke-linecap="round" stroke-linejoin="round" stroke-miterlimit="10"/><path d="M6.5,7.5   c0,0,1.833333,1,5.5,1s5.5-1,5.5-1" fill="none" stroke="#ffc107" stroke-linecap="round" stroke-linejoin="round" stroke-miterlimit="10"/><path d="M6.5,7.5h-2   c-0.5522847,0-1,0.4477153-1,1v3c0,0.5522852,0.4477153,1,1,1h2" fill="none" stroke="#ffc107" stroke-linecap="round" stroke-linejoin="round" stroke-miterlimit="10"/><path d="M17.5,7.5h2   c0.5522842,0,1,0.4477153,1,1v3c0,0.5522852-0.4477158,1-1,1h-2" fill="none" stroke="#ffc107" stroke-linecap="round" stroke-linejoin="round" stroke-miterlimit="10"/><polyline fill="none" points="6.5,16.5    6.5,23.5 2.5,23.5 3.5,19.5 4.5,19.5 4.5,12.5  " stroke="#ffc107" stroke-linecap="round" stroke-linejoin="round" stroke-miterlimit="10"/><polyline fill="none" points="19.5,12.5    19.5,19.5 20.5,19.5 21.5,23.5 17.5,23.5 17.5,16.5  " stroke="#ffc107" stroke-linecap="round" stroke-linejoin="round" stroke-miterlimit="10"/><path d="M8,17.0320148   L8.666667,19c0,0,1.0476189,0.5,3.333333,0.5s3.333333-0.5,3.333333-0.5L16,17.0310078" fill="none" stroke="#ffc107" stroke-linecap="round" stroke-linejoin="round" stroke-miterlimit="10"/><circle cx="12" cy="6" fill="none" r="0.5" stroke="#ffc107" stroke-linecap="round" stroke-linejoin="round" stroke-miterlimit="10"/><polyline fill="none" points="   9.5,8.3326292 10,3.5 14,3.5 14.5,8.3325787  " stroke="#ffc107" stroke-linecap="round" stroke-linejoin="round" stroke-miterlimit="10"/><line fill="none" stroke="#ffc107" stroke-linecap="round" stroke-linejoin="round" stroke-miterlimit="10" x1="9.5" x2="14.5" y1="11.5" y2="11.5"/><line fill="none" stroke="#ffc107" stroke-linecap="round" stroke-linejoin="round" stroke-miterlimit="10" x1="9.5" x2="14.5" y1="14.5" y2="14.5"/><line fill="none" stroke="#ffc107" stroke-linecap="round" stroke-linejoin="round" stroke-miterlimit="10" x1="4.5" x2="4.5" y1="23.5" y2="22.5"/><line fill="none" stroke="#ffc107" stroke-linecap="round" stroke-linejoin="round" stroke-miterlimit="10" x1="19.5" x2="19.5" y1="23.5" y2="22.5"/><line fill="none" stroke="#ffc107" stroke-linecap="round" stroke-linejoin="round" stroke-miterlimit="10" x1="19.5" x2="17.5" y1="19.5" y2="19.5"/><line fill="none" stroke="#ffc107" stroke-linecap="round" stroke-linejoin="round" stroke-miterlimit="10" x1="6.5" x2="4.5" y1="19.5" y2="19.5"/><polyline fill="none" points="   10,19.3505745 9.5,22.5 14.5,22.5 14,19.3505745  " stroke="#ffc107" stroke-linecap="round" stroke-linejoin="round" stroke-miterlimit="10"/><line fill="none" stroke="#ffc107" stroke-linecap="round" stroke-linejoin="round" stroke-miterlimit="10" x1="12" x2="12" y1="22.5" y2="21.5"/><circle cx="15.5" cy="6.5" fill="#303C42" r="0.5"/></g><g/><g/><g/><g/><g/><g/><g/><g/><g/><g/><g/><g/><g/><g/><g/></svg>